<svg xmlns="http://www.w3.org/2000/svg" width="266.945" height="78.688" viewBox="0 0 266.945 78.688">
  <g id="Logo" transform="translate(0 0)">
    <g id="Group_170" data-name="Group 170" transform="translate(-829.089 -2751.312)">
      <g id="Group_168" data-name="Group 168">
        <path id="Path_1970" data-name="Path 1970" d="M870.868,2789.807c0,9.325-7.915,16.339-20.725,16.339-13.22,0-20.238-7.73-21.054-8.688l3.918-6.853a23.83,23.83,0,0,0,17.3,7.89c8.242,0,12.73-3.268,12.73-8.368,0-4.3-4.977-6.934-12.484-8.21-15.259-2.551-19.584-7.89-19.584-15.063,0-8.687,6.936-15.542,19.747-15.542,2.285,0,10.934.239,17.707,6.376l-3.754,6.934a19.7,19.7,0,0,0-14.116-5.658c-7.507,0-11.751,2.789-11.751,7.572,0,4.144,3.754,6.057,12.4,7.73C864.259,2776.737,870.868,2780.8,870.868,2789.807Z" fill="#19315b"/>
        <path id="Path_1971" data-name="Path 1971" d="M925.867,2806.146H917.38l-5.3-11.477h-.029l-12.294-26.46-12.293,26.46h-.028l-5.3,11.477h-8.486l26.111-54.834Z" fill="#19315b"/>
        <path id="Path_1972" data-name="Path 1972" d="M933.215,2751.312h7.833v54.834h-7.833Zm11.233,54.834v-7.833h18.795v7.833Z" fill="#19315b"/>
        <path id="Path_1973" data-name="Path 1973" d="M970.756,2806.146v-54.834h7.834v54.834Z" fill="#19315b"/>
        <path id="Path_1974" data-name="Path 1974" d="M1036.455,2751.312v54.864L990.76,2761.63v-10.318l37.862,37.094v-37.094Zm-45.695,16.635,7.834,7.521v30.678H990.76Z" fill="#19315b"/>
        <path id="Path_1975" data-name="Path 1975" d="M1096.034,2806.146h-8.487l-5.3-11.477h-.029l-12.293-26.46-12.294,26.46h-.027l-5.3,11.477h-8.486l26.111-54.834Z" fill="#19315b"/>
      </g>
      <g id="Group_169" data-name="Group 169">
        <path id="Path_1976" data-name="Path 1976" d="M962.989,2814.231a7.885,7.885,0,1,0,7.885,7.884A7.884,7.884,0,0,0,962.989,2814.231Zm0,13.578a5.693,5.693,0,1,1,5.693-5.694A5.693,5.693,0,0,1,962.989,2827.809Z" fill="#19315b"/>
        <path id="Path_1977" data-name="Path 1977" d="M937.321,2824.558H939.6a7.4,7.4,0,0,1-7.166,5.442,7.884,7.884,0,1,1,0-15.767,7.483,7.483,0,0,1,6.806,4.308l-2.223.642a5.074,5.074,0,0,0-4.583-2.75,5.683,5.683,0,1,0,0,11.367A5.052,5.052,0,0,0,937.321,2824.558Zm2.634-2.442a8.723,8.723,0,0,1-.125,1.467h-7.942v-2.2l8.021.023A6.5,6.5,0,0,1,939.955,2822.116Z" fill="#19315b"/>
        <path id="Path_1978" data-name="Path 1978" d="M953.25,2829.816h-2.567l-3.827-5.317H944.45v5.317h-2.2V2822.3h5.477a2.844,2.844,0,1,0,.046-5.684H942.25v-2.2h4.766c4.011,0,5.867,2.017,5.867,4.927a4.858,4.858,0,0,1-3.6,4.95Z" fill="#19315b"/>
        <path id="Path_1979" data-name="Path 1979" d="M985.092,2814.416v8.617c0,4.056-1.834,6.967-5.867,6.967-4.125,0-5.867-2.911-5.867-6.967v-8.617h2.2v9.35c0,2.384,1.351,4.034,3.666,4.034,2.292,0,3.667-1.65,3.667-4.034v-9.35Z" fill="#19315b"/>
        <path id="Path_1980" data-name="Path 1980" d="M998.594,2819.343a4.913,4.913,0,0,1-5.18,5.156H990.16v5.317h-2.2V2822.3h5.477a2.657,2.657,0,0,0,2.957-2.819,2.787,2.787,0,0,0-3.094-2.865h-5.34v-2.2h4.767C996.737,2814.416,998.594,2816.433,998.594,2819.343Z" fill="#19315b"/>
      </g>
    </g>
  </g>
</svg>
